PathFileType	4	(X/Y/Z)	C:\Users\°ÂÌØÂü\Desktop\20210112\bx_n_0_501-Unnamed.trc
DataRate	CameraRate	NumFrames	NumMarkers	Units	OrigDataRate	OrigDataStartFrame	OrigNumFrames
50.00	50.00	       4	0	mm	50.00	128	       339
Frame#	Time	
		

128	2.540	-206.35616	115.08142	1611.23584	-759.52203	278.96619	739.68732	-387.77524	277.09198	1374.16833	-447.71194	99.13937	1167.71387	-768.70007	288.02985	874.79193	-757.20422	-22.31883	207.50426	-700.52942	22.80612	526.58521	-781.75623	258.45316	636.73999	-679.55255	155.96399	160.42000	-667.90186	1.59234	808.52704	-798.70837	265.49686	495.10852	-548.02802	212.02037	163.63184	-546.24866	-10.05378	161.85162	-750.01965	142.04778	573.02039	-600.90356	38.68068	165.93681	-677.57996	56.86188	159.58948	-796.76056	183.13933	183.88452	-762.95837	226.36780	204.32649	-590.10120	182.19049	172.82294	-882.61945	296.00604	144.51439	-770.93732	250.09850	572.18372	-639.88104	273.34494	160.08348	-601.78589	274.11807	159.61330	-528.07733	303.82642	146.19939	-363.43353	-75.93306	1359.88464	-847.17694	94.67688	1107.03040	-671.33417	214.41908	793.21899	-740.38904	78.71613	576.73706	-794.14038	32.66431	175.78470	-781.34601	-48.24803	486.18439	-875.79321	-78.65291	140.91418	-726.70807	68.67107	216.96974				-749.05292	-33.25255	616.73779	-750.20276	-29.63926	569.16327	-723.28265	144.99165	221.15994				-599.63794	-62.25056	157.40822	-641.52423	-59.63264	163.00839	-753.19702	-60.81935	755.22308	-517.99066	-73.04592	143.03880							-671.40173	-5.08048	1008.59894	-666.61676	235.54726	1027.04297				-720.29095	199.46307	537.60687	-751.46271	-72.93295	871.29846	
129	2.560	-206.55121	114.91180	1610.60413	-759.81512	279.39035	739.73566	-387.92340	276.94925	1373.89172	-448.89191	99.07193	1167.77429	-769.38599	288.23846	874.44098	-757.33362	-21.97359	207.52095	-700.80420	22.58641	526.82465	-782.01849	258.29782	636.62445	-679.45813	156.18044	160.20120	-668.34833	1.67458	808.49323	-798.73535	265.50665	494.89285	-548.17828	211.98074	163.45343	-546.17987	-10.02147	161.86252	-750.63873	142.39905	573.12646	-600.96967	38.64687	165.98834	-677.63000	56.81398	159.32800	-796.80206	183.10065	183.81383	-763.05902	226.48346	204.34753	-590.06152	182.12367	172.57527	-882.66919	296.18298	144.57330	-771.15405	249.86502	572.21844	-640.17053	273.35843	159.75250	-601.71082	273.97598	159.73526	-528.14905	303.87628	146.15105	-363.58502	-76.05615	1359.57751	-847.57922	94.70848	1106.94202	-671.99921	214.68867	793.17816	-740.54590	78.62202	576.69617	-794.13159	32.59766	175.71570	-781.62067	-48.09318	485.93704	-875.78070	-78.64841	140.93260	-726.79138	68.66159	217.22661				-749.45612	-33.30756	616.63147	-750.39264	-29.58391	569.23706	-723.46832	145.20290	221.03479				-599.47241	-62.32908	157.52301	-641.39954	-59.63538	163.12573	-753.91357	-60.78121	755.44086	-517.91980	-73.01032	143.17534							-672.07056	-5.58888	1009.28790	-667.07990	235.81895	1027.17676				-720.62177	199.35541	537.45850	-752.26813	-73.21004	871.47382	
130	2.580	-206.76212	114.92958	1610.21838	-760.29016	279.38501	739.60132	-388.51450	276.52704	1373.40186	-449.02509	98.79266	1167.65820	-769.61987	288.44778	874.46057	-757.33362	-21.97359	207.52095	-700.80957	22.65456	526.66779	-782.29248	258.35999	636.54083	-679.55255	155.96399	160.42000	-668.74310	1.57430	808.50818	-798.84589	265.49127	494.96182	-548.09998	212.27274	163.44374	-545.96759	-10.24580	161.72116	-751.49530	142.06293	573.05951	-600.89972	38.78186	166.04639	-677.69739	56.83186	159.44615	-796.90704	183.24873	184.00166	-763.12341	226.29082	204.25368	-590.16693	182.32101	172.63695	-882.58575	296.13757	144.56622	-771.43420	250.13101	572.55914	-640.08679	273.26620	159.83809	-601.73236	274.18994	159.50821	-528.02557	303.88501	146.22704	-364.14612	-76.17384	1359.41187	-848.24841	94.92061	1106.82007	-672.20978	214.75043	792.91418	-740.90582	78.90093	576.71655	-794.13483	32.54493	175.73915	-781.89026	-47.90562	485.96573				-726.63062	69.21417	217.26442	-876.12219	-78.89765	141.41621	-749.64301	-33.29622	616.61145	-750.46637	-29.45962	569.14368	-723.19543	145.31374	221.14653				-599.63794	-62.25056	157.40822	-641.39954	-59.63538	163.12573	-754.44330	-60.74623	755.27856	-517.98566	-73.08208	143.18445							-672.90918	-5.19221	1008.78595	-667.68799	235.68460	1026.95898				-720.90643	199.59264	537.59802	-753.15503	-73.34352	871.66028	
131	2.600	-207.02208	115.02180	1609.92883	-760.79059	279.26999	739.27838	-388.77750	276.47385	1373.21008	-449.90967	99.13126	1166.43799	-770.09857	288.44415	874.43646	-757.47559	-21.92715	207.38007	-701.21490	22.81935	526.87860	-782.82513	258.30136	636.28583	-679.69440	156.17131	160.27579	-669.32556	1.48694	808.28882	-798.94690	265.53778	494.61389	-548.18475	212.14345	163.43765	-546.09631	-10.31105	161.55952	-751.81134	142.27342	573.03772	-600.90356	38.68068	165.93681	-677.54187	56.79240	159.45909	-796.80206	183.10065	183.81383	-763.22858	226.36182	204.28491	-590.24115	182.30609	172.72829	-882.70941	296.17542	144.57637	-771.64215	249.92966	572.27539	-640.17053	273.35843	159.75250	-601.51086	274.14243	159.60596	-528.21484	303.82672	146.14497	-365.09665	-76.41282	1359.07739	-848.91907	94.95554	1106.60962	-672.69775	214.85651	793.34528	-741.23712	78.75581	576.69641	-794.09967	32.68519	175.65205	-782.20471	-47.94528	486.03394				-726.54810	68.91161	217.13011	-876.14905	-78.79788	141.54057	-750.05396	-33.13933	616.65295	-750.79822	-29.34767	568.85284	-723.34668	145.32727	221.17250				-599.42841	-62.18716	157.71077	-641.39954	-59.63538	163.12573	-754.97827	-60.83047	755.23877	-517.94177	-72.92817	143.09164							-673.64636	-5.20731	1008.37933	-668.31281	235.82631	1026.95178				-721.28967	199.66788	537.42346	-753.56995	-73.11987	871.83356	
